<?xml version="1.0" encoding="UTF-8"?>
<svg xmlns="http://www.w3.org/2000/svg" width="1024" height="1024" viewBox="0 0 1024 1024" role="img" shape-rendering="geometricPrecision">
  <defs>
    <filter id="organic-filter" x="-10%" y="-10%" width="120%" height="120%">
      <feGaussianBlur in="SourceGraphic" stdDeviation="0.1" result="blurred" />
    </filter>
  </defs>
  <g filter="url(#organic-filter)">

  <rect width="1024" height="1024" fill="#131716"/>
  <defs>
    <filter id="glow-te2350" x="-50%" y="-50%" width="200%" height="200%">
      <feGaussianBlur in="SourceGraphic" stdDeviation="3" result="blur1" />
      <feGaussianBlur in="SourceGraphic" stdDeviation="10" result="blur2" />
      <feMerge>
        <feMergeNode in="blur2" />
        <feMergeNode in="blur1" />
        <feMergeNode in="SourceGraphic" />
      </feMerge>
    </filter>
  </defs>
  <g id="te2350-canvas-group" filter="url(#glow-te2350)">
    <path d="M 457.272 692 L 453.301 691.891 L 449.361 691.562 L 445.456 691.016 L 441.586 690.252 L 437.754 689.271 L 433.962 688.074 L 430.213 686.664 L 426.508 685.041 L 422.849 683.208 L 419.238 681.166 L 415.677 678.919 L 412.168 676.469 L 408.714 673.819 L 405.315 670.972 L 401.973 667.932 L 398.692 664.702 L 395.471 661.286 L 392.313 657.69 L 389.221 653.915 L 386.194 649.969 L 383.236 645.854 L 380.347 641.577 L 377.529 637.142 L 374.784 632.556 L 372.113 627.822 L 369.517 622.948 L 366.999 617.939 L 364.559 612.801 L 362.198 607.54 L 359.919 602.163 L 357.722 596.677 L 355.608 591.087 L 353.579 585.402 L 351.635 579.627 L 349.778 573.77 L 348.009 567.838 L 346.328 561.838 L 344.737 555.778 L 343.236 549.664 L 341.827 543.504 L 340.509 537.306 L 339.284 531.078 L 338.152 524.826 L 337.115 518.558 L 336.172 512.283 L 335.324 506.007 L 334.571 499.738 L 333.914 493.485 L 333.354 487.254 L 332.89 481.053 L 332.523 474.889 L 332.253 468.771 L 332.08 462.705 L 332.004 456.7 L 332.025 450.761 L 332.144 444.897 L 332.36 439.115 L 332.673 433.421 L 333.083 427.823 L 333.59 422.327 L 334.193 416.94 L 334.892 411.668 L 335.687 406.519 L 336.577 401.498 L 337.562 396.611 L 338.641 391.865 L 339.814 387.265 L 341.08 382.816 L 342.439 378.524 L 343.889 374.395 L 345.43 370.433 L 347.06 366.643 L 348.78 363.03 L 350.589 359.598 L 352.484 356.352 L 354.466 353.294 L 356.533 350.43 L 358.684 347.762 L 360.917 345.293 L 363.233 343.028 L 365.628 340.968 L 368.103 339.116 L 370.656 337.474 L 373.285 336.044 L 375.989 334.828 L 378.766 333.828 L 381.616 333.044 L 384.536 332.478 L 387.524 332.13 L 390.581 332.001 L 393.702 332.091 L 396.888 332.399 L 400.136 332.926 L 403.444 333.671 L 406.811 334.632 L 410.235 335.809 L 413.714 337.2 L 417.246 338.804 L 420.829 340.619 L 424.461 342.641 L 428.141 344.87 L 431.866 347.302 L 435.634 349.934 L 439.444 352.764 L 443.293 355.787 L 447.179 358.999 L 451.1 362.398 L 455.054 365.979 L 459.038 369.737 L 463.052 373.669 L 467.092 377.768 L 471.156 382.031 L 475.242 386.452 L 479.348 391.025 L 483.471 395.746 L 487.61 400.608 L 491.763 405.605 L 495.926 410.731 L 500.098 415.981 L 504.276 421.348 L 508.458 426.825 L 512.643 432.405 L 516.827 438.082 L 521.008 443.849 L 525.185 449.699 L 529.354 455.625 L 533.514 461.619 L 537.663 467.674 L 541.797 473.783 L 545.916 479.939 L 550.016 486.134 L 554.095 492.36 L 558.152 498.61 L 562.184 504.877 L 566.189 511.152 L 570.164 517.428 L 574.108 523.697 L 578.019 529.953 L 581.893 536.186 L 585.73 542.39 L 589.528 548.557 L 593.283 554.68 L 596.994 560.75 L 600.66 566.762 L 604.277 572.707 L 607.845 578.578 L 611.361 584.368 L 614.823 590.07 L 618.229 595.677 L 621.578 601.183 L 624.868 606.58 L 628.097 611.862 L 631.264 617.022 L 634.365 622.055 L 637.401 626.954 L 640.369 631.713 L 643.267 636.327 L 646.095 640.79 L 648.85 645.096 L 651.531 649.24 L 654.137 653.217 L 656.665 657.022 L 659.116 660.652 L 661.487 664.1 L 663.778 667.364 L 665.986 670.438 L 668.111 673.32 L 670.152 676.006 L 672.107 678.492 L 673.976 680.776 L 675.757 682.855 L 677.45 684.726 L 679.053 686.387 L 680.566 687.836 L 681.988 689.071 L 683.318 690.091 L 684.556 690.894 L 685.7 691.48 L 686.751 691.848 L 687.706 691.996 L 688.567 691.926 L 689.333 691.638 L 690.003 691.13 L 690.576 690.405 L 691.053 689.464 L 691.433 688.306 L 691.717 686.934 L 691.903 685.349 L 691.992 683.553 L 691.983 681.549 L 691.878 679.339 L 691.675 676.925 L 691.375 674.311 L 690.978 671.499 L 690.484 668.494 L 689.894 665.298 L 689.208 661.915 L 688.426 658.351 L 687.549 654.608 L 686.577 650.692 L 685.51 646.608 L 684.35 642.36 L 683.096 637.953 L 681.75 633.393 L 680.313 628.686 L 678.784 623.836 L 677.165 618.851 L 675.457 613.736 L 673.661 608.497 L 671.777 603.14 L 669.807 597.673 L 667.752 592.102 L 665.612 586.433 L 663.389 580.674 L 661.085 574.831 L 658.7 568.912 L 656.236 562.924 L 653.694 556.874 L 651.075 550.769 L 648.381 544.617 L 645.613 538.425 L 642.774 532.202 L 639.863 525.954 L 636.883 519.688 L 633.836 513.414 L 630.723 507.137 L 627.546 500.867 L 624.307 494.61 L 621.006 488.374 L 617.647 482.167 L 614.231 475.997 L 610.76 469.87 L 607.235 463.794 L 603.658 457.777 L 600.032 451.826 L 596.359 445.948 L 592.64 440.15 L 588.877 434.44 L 585.073 428.824 L 581.23 423.309 L 577.348 417.902 L 573.432 412.609 L 569.482 407.438 L 565.502 402.393 L 561.492 397.482 L 557.456 392.71 L 553.395 388.083 L 549.312 383.606 L 545.208 379.286 L 541.087 375.127 L 536.95 371.134 L 532.799 367.313 L 528.637 363.668 L 524.467 360.203 L 520.289 356.923 L 516.107 353.831 L 511.923 350.931 L 507.739 348.228 L 503.557 345.723 L 499.379 343.421 L 495.209 341.324 L 491.047 339.434 L 486.897 337.754 L 482.761 336.286 L 478.64 335.031 L 474.537 333.992 L 470.455 333.169 L 466.395 332.564 L 462.359 332.177 L 458.351 332.008 L 454.371 332.058 L 450.423 332.327 L 446.508 332.815 L 442.628 333.52 L 438.786 334.443 L 434.983 335.581 L 431.222 336.934 L 427.505 338.5 L 423.833 340.276 L 420.209 342.262 L 416.634 344.454 L 413.111 346.849 L 409.642 349.445 L 406.228 352.24 L 402.871 355.228 L 399.573 358.407 L 396.335 361.772 L 393.161 365.321 L 390.05 369.047 L 387.005 372.948 L 384.028 377.017 L 381.12 381.251 L 378.283 385.644 L 375.518 390.19 L 372.827 394.884 L 370.211 399.721 L 367.672 404.695 L 365.21 409.798 L 362.828 415.027 L 360.527 420.373" fill="none" stroke="#00e5a0" stroke-width="2.952" stroke-dasharray="6,6" opacity="0.85" stroke-linecap="round" stroke-linejoin="round"/>
    <circle cx="375.518" cy="390.19" r="5.514" fill="#ffffff" opacity="1"/>
    <circle cx="342.439" cy="378.524" r="6.118" fill="#ffffff" opacity="1"/>
    <circle cx="600.66" cy="566.762" r="5.4" fill="#ffffff" opacity="1"/>
    <circle cx="651.075" cy="550.769" r="4.02" fill="#ffffff" opacity="1"/>
    <path d="M 332 340.521 L 332.596 342.534 L 334.378 344.752 L 337.336 347.174 L 341.45 349.796 L 346.692 352.615 L 353.028 355.629 L 360.416 358.832 L 368.807 362.221 L 378.146 365.793 L 388.37 369.542 L 399.412 373.465 L 411.199 377.556 L 423.654 381.811 L 436.693 386.224 L 450.23 390.789 L 464.176 395.503 L 478.438 400.357 L 492.922 405.348 L 507.533 410.468 L 522.173 415.712 L 536.746 421.073 L 551.155 426.544 L 565.305 432.119 L 579.103 437.792 L 592.456 443.554 L 605.277 449.4 L 617.481 455.322 L 628.987 461.313 L 639.718 467.365 L 649.605 473.472 L 658.581 479.626 L 666.587 485.819 L 673.57 492.044 L 679.484 498.293 L 684.29 504.558 L 687.956 510.833 L 690.458 517.109 L 691.778 523.379 L 691.909 529.635 L 690.85 535.87 L 688.607 542.076 L 685.196 548.245 L 680.638 554.37 L 674.965 560.444 L 668.213 566.458 L 660.428 572.407 L 651.661 578.282 L 641.969 584.076 L 631.417 589.783 L 620.076 595.395 L 608.019 600.906 L 595.326 606.308 L 582.083 611.596 L 568.375 616.763 L 554.295 621.803 L 539.935 626.709 L 525.39 631.475 L 510.756 636.096 L 496.13 640.567 L 481.61 644.881 L 467.291 649.033 L 453.267 653.019 L 439.632 656.833 L 426.476 660.472 L 413.886 663.929 L 401.945 667.202 L 390.732 670.287 L 380.322 673.179 L 370.783 675.874 L 362.179 678.371 L 354.565 680.665 L 347.994 682.755 L 342.508 684.636 L 338.143 686.308 L 334.929 687.768 L 332.886 689.014 L 332.029 690.044 L 332.362 690.859 L 333.884 691.456 L 336.585 691.834 L 340.447 691.994 L 345.443 691.935 L 351.542 691.658 L 358.702 691.161 L 366.877 690.448 L 376.012 689.517 L 386.047 688.37 L 396.915 687.009 L 408.545 685.435 L 420.86 683.65 L 433.777 681.656 L 447.212 679.456 L 461.076 677.053 L 475.277 674.448 L 489.721 671.647 L 504.312 668.651 L 518.954 665.464 L 533.55 662.092 L 548.003 658.536 L 562.218 654.803 L 576.101 650.895 L 589.56 646.819 L 602.506 642.579 L 614.852 638.18 L 626.518 633.628 L 637.427 628.928 L 647.505 624.086 L 656.687 619.107 L 664.911 613.998 L 672.124 608.765 L 678.277 603.415 L 683.329 597.953 L 687.249 592.387 L 690.008 586.723 L 691.59 580.968 L 691.983 575.13 L 691.185 569.214 L 689.202 563.229 L 686.046 557.182 L 681.738 551.08 L 676.308 544.93 L 669.79 538.741 L 662.228 532.518 L 653.672 526.271 L 644.178 520.007 L 633.81 513.732 L 622.636 507.456 L 610.73 501.185 L 598.17 494.927 L 585.04 488.69 L 571.427 482.482 L 557.421 476.309 L 543.114 470.18 L 528.602 464.101 L 513.979 458.081 L 499.344 452.126 L 484.792 446.244 L 470.42 440.443 L 456.323 434.728 L 442.595 429.107 L 429.326 423.586 L 416.604 418.174 L 404.513 412.875 L 393.134 407.697 L 382.541 402.646 L 372.804 397.728 L 363.989 392.948 L 356.153 388.314 L 349.348 383.83 L 343.62 379.501 L 339.006 375.334 L 335.536 371.333 L 333.234 367.503 L 332.115 363.849 L 332.187 360.375 L 333.448 357.085 L 335.89 353.983 L 339.498 351.074 L 344.248 348.36 L 350.107 345.846 L 357.038 343.533 L 364.994 341.425 L 373.922 339.525 L 383.765 337.834 L 394.456 336.355 L 405.924 335.09 L 418.095 334.04 L 430.887 333.206 L 444.216 332.589 L 457.993 332.191 L 472.127 332.011 L 486.526 332.05 L 501.093 332.308 L 515.732 332.785 L 530.346 333.479 L 544.839 334.391 L 559.115 335.518 L 573.079 336.86 L 586.639 338.415 L 599.705 340.181 L 612.191 342.156 L 624.013 344.337 L 635.095 346.723 L 645.362 349.309 L 654.746 352.093 L 663.186 355.071 L 670.626 358.241 L 677.016 361.597 L 682.314 365.136 L 686.485 368.854 L 689.501 372.746 L 691.343 376.807 L 691.998 381.032 L 691.463 385.417 L 689.739 389.956 L 686.84 394.643 L 682.784 399.472 L 677.597 404.439 L 671.315 409.536 L 663.979 414.758 L 655.637 420.098 L 646.345 425.55 L 636.163 431.107 L 625.16 436.763 L 613.409 442.51 L 600.986 448.341 L 587.974 454.25 L 574.46 460.229 L 560.533 466.271 L 546.284 472.368 L 531.808 478.514 L 517.202 484.7 L 502.561 490.92 L 487.982 497.165 L 473.562 503.428 L 459.397 509.702 L 445.58 515.979 L 432.202 522.25 L 419.352 528.51 L 407.116 534.749 L 395.573 540.96 L 384.801 547.137 L 374.87 553.27 L 365.847 559.353 L 357.791 565.379 L 350.755 571.34 L 344.786 577.229 L 339.924 583.038 L 336.2 588.761 L 333.64 594.391 L 332.26 599.92 L 332.069 605.343 L 333.068 610.652 L 335.252 615.841 L 338.605 620.904 L 343.106 625.835 L 348.724 630.627 L 355.423 635.275 L 363.157 639.773 L 371.877 644.115 L 381.523 648.297 L 392.034 652.313 L 403.337 656.159 L 415.36 659.829 L 428.023 663.32 L 441.241 666.627 L 454.927 669.745 L 468.991 672.672 L 483.339 675.403 L 497.877 677.936 L 512.509 680.267 L 527.137 682.393 L 541.665 684.313 L 555.997 686.022 L 570.038 687.52 L 583.694 688.805 L 596.876 689.875 L 609.497 690.728 L 621.472 691.364 L 632.723 691.782 L 643.176 691.982 L 652.76 691.962 L 661.413 691.724 L 669.077 691.267 L 675.702 690.592 L 681.243 689.7 L 685.665 688.592 L 688.938 687.27 L 691.039 685.734 L 691.956 683.987 L 691.683 682.031 L 690.22 679.868 L 687.578 677.501 L 683.775 674.932 L 678.834 672.166 L 672.79 669.205 L 665.682 666.052 L 657.557 662.713 L 648.468 659.19 L 638.477 655.488 L 627.649 651.612 L 616.055 647.566 L 603.773 643.355 L 590.884 638.984 L 577.473 634.459 L 563.629 629.785 L 549.443 624.968 L 535.009 620.014 L 520.423 614.928 L 505.781 609.717 L 491.18 604.387 L 476.717 598.945 L 462.488 593.397 L 448.586 587.751 L 435.104 582.012 L 422.131 576.188 L 409.752 570.286 L 398.05 564.313 L 387.102 558.276 L 376.98 552.183" fill="none" stroke="#002e20" stroke-width="2.952" stroke-dasharray="6,6" opacity="0.8" stroke-linecap="round" stroke-linejoin="round"/>
    <circle cx="448.586" cy="587.751" r="5.514" fill="#ffffff" opacity="0.95"/>
    <circle cx="370.783" cy="675.874" r="6.118" fill="#ffffff" opacity="0.95"/>
    <circle cx="393.134" cy="407.697" r="5.4" fill="#ffffff" opacity="0.95"/>
    <circle cx="419.352" cy="528.51" r="4.02" fill="#ffffff" opacity="0.95"/>
    <path d="M 457.272 332 L 443.516 333.469 L 430.213 337.854 L 417.451 345.081 L 405.315 355.034 L 393.884 367.549 L 383.236 382.423 L 373.439 399.412 L 364.559 418.24 L 356.655 438.598 L 349.778 460.155 L 343.975 482.558 L 339.284 505.442 L 335.736 528.433 L 333.354 551.155 L 332.154 573.239 L 332.144 594.322 L 333.324 614.062 L 335.687 632.135 L 339.216 648.247 L 343.889 662.134 L 349.674 673.57 L 356.533 682.368 L 364.42 688.385 L 373.285 691.522 L 383.067 691.728 L 393.702 689 L 405.12 683.381 L 417.246 674.965 L 429.998 663.888 L 443.293 650.331 L 457.042 634.516 L 471.156 616.7 L 485.539 597.175 L 500.098 576.26 L 514.735 554.295 L 529.354 531.64 L 543.858 508.664 L 558.152 485.742 L 572.14 463.25 L 585.73 441.553 L 598.833 421.006 L 611.361 401.945 L 623.231 384.681 L 634.365 369.495 L 644.69 356.636 L 654.137 346.314 L 662.643 338.697 L 670.152 333.909 L 676.615 332.029 L 681.988 333.087 L 686.237 337.066 L 689.333 343.902 L 691.255 353.481 L 691.992 365.649 L 691.537 380.206 L 689.894 396.915 L 687.074 415.503 L 683.096 435.667 L 677.986 457.077 L 671.777 479.383 L 664.511 502.222 L 656.236 525.22 L 647.006 548.003 L 636.883 570.198 L 625.934 591.443 L 614.231 611.391 L 601.851 629.716 L 588.877 646.119 L 575.395 660.332 L 561.492 672.124 L 547.262 681.301 L 532.799 687.714 L 518.198 691.259 L 503.557 691.876 L 488.971 689.557 L 474.537 684.339 L 460.352 676.308 L 446.508 665.593 L 433.097 652.371 L 420.209 636.858 L 407.928 619.305 L 396.335 600.001 L 385.508 579.26 L 375.518 557.421 L 366.431 534.84 L 358.308 511.887 L 351.201 488.935 L 345.158 466.36 L 340.219 444.53 L 336.417 423.802 L 333.777 404.513 L 332.316 386.98 L 332.044 371.487 L 332.963 358.289 L 335.066 347.6 L 338.34 339.596 L 342.764 334.406 L 348.307 332.115 L 354.933 332.762 L 362.599 336.335 L 371.253 342.776 L 380.839 351.98 L 391.292 363.796 L 402.544 378.032 L 414.52 394.456 L 427.142 412.798 L 440.325 432.76 L 453.982 454.016 L 468.023 476.218 L 482.355 499.005 L 496.883 522.004 L 511.512 544.839 L 526.143 567.139 L 540.681 588.538 L 555.029 608.687 L 569.093 627.258 L 582.778 643.948 L 595.996 658.482 L 608.657 670.626 L 620.679 680.179 L 631.982 686.987 L 642.491 690.938 L 652.136 691.967 L 660.854 690.058 L 668.588 685.242 L 675.285 677.597 L 680.901 667.249 L 685.4 654.366 L 688.752 639.159 L 690.934 621.876 L 691.932 602.799 L 691.739 582.239 L 690.357 560.533 L 687.795 538.034 L 684.07 515.11 L 679.206 492.135 L 673.236 469.485 L 666.199 447.529 L 658.141 426.625 L 649.116 407.116 L 639.185 389.318 L 628.411 373.524 L 616.868 359.991 L 604.63 348.939 L 591.779 340.55 L 578.401 334.959 L 564.583 332.26 L 550.417 332.495 L 535.997 335.66 L 521.419 341.705 L 506.778 350.53 L 492.171 361.991 L 477.696 375.901 L 463.447 392.034 L 449.52 410.125 L 436.007 429.879 L 422.996 450.974 L 410.574 473.065 L 398.824 495.793 L 387.822 518.784 L 377.642 541.665 L 368.35 564.062 L 360.01 585.608 L 352.675 605.953 L 346.394 624.764 L 341.21 641.734 L 337.155 656.586 L 334.257 669.077 L 332.536 679.003 L 332.002 686.203 L 332.659 690.559 L 334.502 692 L 337.52 690.502 L 341.693 686.089 L 346.993 678.834 L 353.384 668.855 L 360.825 656.316 L 369.266 641.42 L 378.652 624.411 L 388.92 605.567 L 400.003 585.195 L 411.827 563.629 L 424.313 541.219 L 437.38 518.332 L 450.94 495.342 L 464.905 472.624 L 479.181 450.549 L 493.674 429.477 L 508.289 409.752 L 522.928 391.697 L 537.495 375.605 L 551.893 361.741 L 566.027 350.33 L 579.804 341.559 L 593.132 335.57 L 605.923 332.462 L 618.092 332.285 L 629.56 335.042 L 640.25 340.688 L 650.091 349.131 L 659.018 360.233 L 666.973 373.814 L 673.902 389.65 L 679.76 407.484 L 684.508 427.024 L 688.114 447.952 L 690.555 469.925 L 691.814 492.585 L 691.884 515.562 L 690.763 538.481 L 688.46 560.968 L 684.988 582.655 L 680.373 603.189 L 674.643 622.234 L 667.837 639.479 L 659.999 654.643 L 651.183 667.478 L 641.445 677.774 L 630.851 685.364 L 619.47 690.124 L 607.379 691.975 L 594.656 690.888 L 581.386 686.88 L 567.657 680.017 L 553.56 670.411 L 539.188 658.219 L 524.636 643.639 L 510 626.911 L 495.378 608.306 L 480.865 588.128 L 466.559 566.708 L 452.553 544.395 L 438.941 521.552 L 425.812 498.554 L 413.253 475.775 L 401.348 453.588 L 390.175 432.354 L 379.808 412.421 L 370.316 394.113 L 361.761 377.731 L 354.2 363.54 L 347.684 351.773 L 342.255 342.622 L 337.949 336.237 L 334.795 332.721 L 332.813 332.132 L 332.017 334.48 L 332.412 339.726 L 333.995 347.785 L 336.756 358.525 L 340.677 371.77 L 345.731 387.305 L 351.886 404.876 L 359.1 424.196 L 367.326 444.95 L 376.509 466.798 L 386.588 489.384 L 397.498 512.339 L 409.165 535.289 L 421.512 557.859 L 434.459 579.68 L 447.918 600.396 L 461.801 619.668 L 476.017 637.183 L 490.471 652.654 L 505.067 665.829 L 519.709 676.492 L 534.3 684.469 L 548.743 689.631 L 562.944 691.893 L 576.807 691.217 L 590.241 687.616 L 603.158 681.147 L 615.472 671.917 L 627.1 660.075 L 637.968 645.817 L 648.001 629.373 L 657.135 611.013 L 665.308 591.037 L 672.467 569.77 L 678.565 547.56 L 683.56 524.769 L 687.419 501.77 L 690.119 478.938 L 691.639 456.646 L 691.971 435.257 L 691.112 415.122 L 689.067 396.568 L 685.852 379.899 L 681.485 365.386 L 675.998 353.268 L 669.425 343.74 L 661.81 336.96 L 653.204 333.038 L 643.664 332.038 L 633.252 333.975 L 622.039 338.82 L 610.097 346.491 L 597.506 356.865 L 584.349 369.772" fill="none" stroke="#00e5a0" stroke-width="2.952" stroke-dasharray="6,6" opacity="0.75" stroke-linecap="round" stroke-linejoin="round"/>
    <circle cx="653.204" cy="333.038" r="5.514" fill="#ffffff" opacity="0.9"/>
    <circle cx="575.395" cy="660.332" r="6.118" fill="#ffffff" opacity="0.9"/>
    <circle cx="604.63" cy="348.939" r="5.4" fill="#ffffff" opacity="0.9"/>
    <circle cx="630.851" cy="685.364" r="4.02" fill="#ffffff" opacity="0.9"/>
    <path d="M 692 340.521 L 691.951 348.9 L 691.805 359.941 L 691.562 373.465 L 691.222 389.251 L 690.785 407.041 L 690.252 426.544 L 689.622 447.443 L 688.896 469.395 L 688.074 492.044 L 687.158 515.018 L 686.146 537.942 L 685.041 560.444 L 683.842 582.154 L 682.55 602.719 L 681.166 621.803 L 679.691 639.094 L 678.125 654.31 L 676.469 667.202 L 674.724 677.561 L 672.891 685.217 L 670.972 690.044 L 668.966 691.965 L 666.876 690.948 L 664.702 687.009 L 662.445 680.212 L 660.107 670.669 L 657.69 658.536 L 655.193 644.01 L 652.619 627.329 L 649.969 608.765 L 647.244 588.622 L 644.446 567.227 L 641.577 544.93 L 638.638 522.096 L 635.63 499.097 L 632.556 476.309 L 629.416 454.103 L 626.213 432.843 L 622.948 412.875 L 619.623 394.526 L 616.24 378.094 L 612.801 363.849 L 609.307 352.022 L 605.76 342.807 L 602.163 336.355 L 598.517 332.771 L 594.825 332.112 L 591.087 334.391 L 587.307 339.569 L 583.487 347.563 L 579.627 358.241 L 575.731 371.429 L 571.801 386.913 L 567.838 404.439 L 563.845 423.721 L 559.824 444.444 L 555.778 466.271 L 551.707 488.843 L 547.615 511.794 L 543.504 534.749 L 539.376 557.332 L 535.233 579.174 L 531.078 599.92 L 526.912 619.231 L 522.738 636.791 L 518.558 652.313 L 514.375 665.545 L 510.19 676.27 L 506.007 684.313 L 501.827 689.542 L 497.652 691.873 L 493.485 691.267 L 489.328 687.734 L 485.183 681.332 L 481.053 672.166 L 476.939 660.384 L 472.845 646.18 L 468.771 629.785 L 464.721 611.468 L 460.697 591.526 L 456.7 570.286 L 452.733 548.094 L 448.798 525.313 L 444.897 502.314 L 441.033 479.474 L 437.207 457.165 L 433.421 435.751 L 429.678 415.581 L 425.979 396.987 L 422.327 380.269 L 418.723 365.703 L 415.17 353.525 L 411.668 343.935 L 408.222 337.088 L 404.831 333.097 L 401.498 332.027 L 398.225 333.896 L 395.013 338.672 L 391.865 346.278 L 388.782 356.59 L 385.765 369.439 L 382.816 384.615 L 379.937 401.872 L 377.13 420.926 L 374.395 441.468 L 371.735 463.161 L 369.151 485.651 L 366.643 508.571 L 364.215 531.548 L 361.866 554.205 L 359.598 576.173 L 357.413 597.094 L 355.311 616.625 L 353.294 634.448 L 351.363 650.272 L 349.518 663.838 L 347.762 674.926 L 346.094 683.353 L 344.516 688.983 L 343.028 691.723 L 341.632 691.529 L 340.327 688.404 L 339.116 682.398 L 337.997 673.611 L 336.973 662.185 L 336.044 648.307 L 335.21 632.204 L 334.471 614.138 L 333.828 594.405 L 333.281 573.326 L 332.831 551.246 L 332.478 528.525 L 332.222 505.534 L 332.063 482.649 L 332.001 460.243 L 332.036 438.682 L 332.169 418.319 L 332.399 399.484 L 332.726 382.487 L 333.15 367.604 L 333.671 355.079 L 334.287 345.116 L 335 337.877 L 335.809 333.481 L 336.713 332 L 337.711 333.458 L 338.804 337.83 L 339.991 345.046 L 341.27 354.988 L 342.641 367.494 L 344.105 382.359 L 345.658 399.34 L 347.302 418.161 L 349.035 438.514 L 350.856 460.066 L 352.764 482.467 L 354.758 505.349 L 356.837 528.341 L 358.999 551.065 L 361.245 573.152 L 363.572 594.24 L 365.979 613.986 L 368.465 632.066 L 371.029 648.186 L 373.669 662.083 L 376.383 673.529 L 379.171 682.339 L 382.031 688.367 L 384.961 691.515 L 387.96 691.733 L 391.025 689.016 L 394.156 683.41 L 397.351 675.004 L 400.608 663.938 L 403.924 650.39 L 407.3 634.584 L 410.731 616.776 L 414.218 597.257 L 417.757 576.346 L 421.348 554.385 L 424.987 531.732 L 428.674 508.756 L 432.405 485.834 L 436.179 463.339 L 439.995 441.638 L 443.849 421.086 L 447.74 402.018 L 451.666 384.746 L 455.625 369.552 L 459.613 356.683 L 463.631 346.35 L 467.674 338.722 L 471.741 333.922 L 475.831 332.031 L 479.939 333.077 L 484.065 337.044 L 488.206 343.869 L 492.36 353.438 L 496.525 365.595 L 500.698 380.144 L 504.877 396.844 L 509.06 415.425 L 513.244 435.583 L 517.428 456.989 L 521.609 479.292 L 525.784 502.13 L 529.953 525.128 L 534.111 547.913 L 538.258 570.111 L 542.39 591.36 L 546.506 611.313 L 550.603 629.646 L 554.68 646.057 L 558.733 660.28 L 562.761 672.081 L 566.762 681.27 L 570.733 687.694 L 574.672 691.25 L 578.578 691.88 L 582.447 689.572 L 586.279 684.366 L 590.07 676.345 L 593.819 665.641 L 597.524 652.429 L 601.183 636.924 L 604.793 619.38 L 608.353 600.082 L 611.862 579.346 L 615.316 557.511 L 618.714 534.932 L 622.055 511.979 L 625.336 489.027 L 628.556 466.449 L 631.713 444.616 L 634.806 423.882 L 637.832 404.587 L 640.79 387.046 L 643.678 371.545 L 646.495 358.337 L 649.24 347.638 L 651.91 339.622 L 654.505 334.421 L 657.022 332.119 L 659.462 332.754 L 661.821 336.315 L 664.1 342.744 L 666.297 351.937 L 668.41 363.744 L 670.438 377.971 L 672.381 394.386 L 674.237 412.721 L 676.006 432.677 L 677.686 453.928 L 679.276 476.128 L 680.776 498.913 L 682.185 521.912 L 683.502 544.749 L 684.726 567.051 L 685.857 588.454 L 686.894 608.609 L 687.836 627.187 L 688.683 643.885 L 689.435 658.429 L 690.091 670.582 L 690.651 680.146 L 691.114 686.965 L 691.48 690.928 L 691.749 691.969 L 691.922 690.072 L 691.996 685.267 L 691.974 677.634 L 691.854 667.296 L 691.638 654.423 L 691.324 639.225 L 690.913 621.949 L 690.405 602.879 L 689.802 582.324 L 689.102 560.622 L 688.306 538.125 L 687.415 515.202 L 686.429 492.227 L 685.349 469.575 L 684.175 447.615 L 682.908 426.707 L 681.549 407.191 L 680.098 389.386 L 678.557 373.583 L 676.925 360.04 L 675.204 348.978 L 673.395 340.578 L 671.499 334.976 L 669.517 332.265 L 667.449 332.488 L 665.298 335.642 L 663.063 341.675 L 660.747 350.489 L 658.351 361.94 L 655.875 375.841 L 653.322 391.965 L 650.692 410.048" fill="none" stroke="#002e20" stroke-width="2.952" stroke-dasharray="6,6" opacity="0.9" stroke-linecap="round" stroke-linejoin="round"/>
    <circle cx="665.298" cy="335.642" r="5.514" fill="#ffffff" opacity="1.05"/>
    <circle cx="506.007" cy="684.313" r="6.118" fill="#ffffff" opacity="1.05"/>
    <circle cx="335.809" cy="333.481" r="5.4" fill="#ffffff" opacity="1.05"/>
    <circle cx="578.578" cy="691.88" r="4.02" fill="#ffffff" opacity="1.05"/>
    <circle cx="512" cy="512" r="22.5" fill="none" stroke="#ffffff" stroke-width="1.2" opacity="0.25" stroke-dasharray="3,3"/>
    <circle cx="512" cy="512" r="2" fill="#ffffff" opacity="0.6"/>
  </g>
  <metadata>te2350-delay=true; mode=Classic Space; algo=lissajous; feedback=0.15</metadata>

  </g>
</svg>
