<?xml version="1.0" encoding="UTF-8"?>
<svg xmlns="http://www.w3.org/2000/svg" width="900" height="560" viewBox="0 0 900 560" role="img" aria-labelledby="title desc">
  <title id="title">TE-2350 Antigravity plugin interface mockup</title>
  <desc id="desc">Dark orbital ambient delay reverb plugin UI with three large macro controls and sci-fi telemetry panels.</desc>
  <defs>
    <radialGradient id="bgGlow" cx="58%" cy="28%" r="72%">
      <stop offset="0" stop-color="#172b5c"/>
      <stop offset="0.44" stop-color="#110f2e"/>
      <stop offset="0.78" stop-color="#070c16"/>
      <stop offset="1" stop-color="#05070c"/>
    </radialGradient>
    <linearGradient id="panelFill" x1="0" y1="0" x2="1" y2="1">
      <stop offset="0" stop-color="#101b2b"/>
      <stop offset="0.52" stop-color="#0b1320"/>
      <stop offset="1" stop-color="#111022"/>
    </linearGradient>
    <linearGradient id="cyanAmber" x1="0" y1="0" x2="1" y2="0">
      <stop offset="0" stop-color="#27d9ff"/>
      <stop offset="0.52" stop-color="#62f0b1"/>
      <stop offset="1" stop-color="#ffb451"/>
    </linearGradient>
    <filter id="softGlow" x="-60%" y="-60%" width="220%" height="220%">
      <feGaussianBlur stdDeviation="4" result="blur"/>
      <feMerge>
        <feMergeNode in="blur"/>
        <feMergeNode in="SourceGraphic"/>
      </feMerge>
    </filter>
    <style>
      .label { font-family: "Arial Narrow", "Bahnschrift", Arial, sans-serif; letter-spacing: 0; fill: #e8f5ff; font-weight: 700; }
      .small { font-family: "Arial Narrow", "Bahnschrift", Arial, sans-serif; letter-spacing: 0; fill: #8192a9; font-size: 10px; }
      .code { font-family: "Bahnschrift", "Arial Narrow", Arial, sans-serif; fill: #8192a9; font-size: 10px; }
      .panel { fill: url(#panelFill); stroke: #203248; stroke-width: 1; }
      .thin { stroke: #203248; stroke-width: 1; fill: none; }
      .cyan { stroke: #27d9ff; }
      .violet { stroke: #9b62ff; }
      .amber { stroke: #ffb451; }
      .green { stroke: #62f0b1; }
    </style>
  </defs>

  <rect width="900" height="560" fill="url(#bgGlow)"/>
  <ellipse cx="510" cy="250" rx="410" ry="335" fill="#9b62ff" opacity="0.07"/>
  <g opacity="0.55">
    <circle cx="63" cy="96" r="1.2" fill="#27d9ff"/>
    <circle cx="124" cy="471" r="1.1" fill="#9b62ff"/>
    <circle cx="201" cy="72" r="1.4" fill="#ffb451"/>
    <circle cx="286" cy="514" r="1" fill="#62f0b1"/>
    <circle cx="351" cy="42" r="1.3" fill="#27d9ff"/>
    <circle cx="438" cy="502" r="1.1" fill="#9b62ff"/>
    <circle cx="531" cy="81" r="1.6" fill="#62f0b1"/>
    <circle cx="613" cy="471" r="1.2" fill="#ffb451"/>
    <circle cx="708" cy="56" r="1.1" fill="#27d9ff"/>
    <circle cx="837" cy="418" r="1.5" fill="#9b62ff"/>
    <circle cx="801" cy="139" r="1" fill="#62f0b1"/>
    <circle cx="742" cy="329" r="1.2" fill="#27d9ff"/>
  </g>

  <g transform="translate(16 16)">
    <g transform="translate(0 0)">
      <circle cx="29" cy="29" r="27" fill="#05080d" stroke="#203248"/>
      <path d="M7 29 C21 4 39 4 51 29 C39 54 21 54 7 29 Z" fill="none" stroke="#27d9ff" stroke-width="1.4" filter="url(#softGlow)"/>
      <path d="M29 6 C55 22 55 36 29 52 C3 36 3 22 29 6 Z" fill="none" stroke="#9b62ff" stroke-width="1"/>
      <path d="M10 42 C27 16 35 16 48 42" fill="none" stroke="#62f0b1" stroke-width="1"/>
      <circle cx="29" cy="29" r="3" fill="#e8f5ff"/>
    </g>
    <text x="76" y="25" class="label" font-size="27">TE-2350 ANTIGRAVITY</text>
    <text x="77" y="47" class="small" font-size="11">AMBIENT DELAY / REVERB  |  ORBITAL MODULATION UNIT</text>
    <rect x="527" y="15" width="158" height="31" rx="4" fill="#08101a" stroke="#203248"/>
    <text x="540" y="35" class="label" font-size="13">LOW ORBIT</text>
    <path d="M668 27 l6 7 l6 -7" fill="none" stroke="#27d9ff" stroke-width="1.4"/>
    <g class="label" font-size="12" text-anchor="middle">
      <rect x="696" y="15" width="40" height="31" rx="4" fill="#0b111b" stroke="#27d9ff" opacity="0.75"/>
      <text x="716" y="35">ADV</text>
      <rect x="740" y="15" width="38" height="31" rx="4" fill="#0b111b" stroke="#203248"/>
      <text x="759" y="35">A/B</text>
      <rect x="782" y="15" width="38" height="31" rx="4" fill="#0b111b" stroke="#203248"/>
      <text x="801" y="35">RST</text>
      <rect x="824" y="15" width="44" height="31" rx="4" fill="#111b16" stroke="#62f0b1"/>
      <text x="846" y="35">BYP</text>
    </g>
    <line x1="0" y1="64" x2="868" y2="64" stroke="#27d9ff" opacity="0.58"/>
  </g>

  <g transform="translate(16 90)">
    <rect class="panel" x="0" y="0" width="288" height="358" rx="8"/>
    <text x="12" y="18" class="label" font-size="12">MACRO ORBIT</text>
    <text x="264" y="18" class="code" text-anchor="end">M-01</text>
    <line x1="12" y1="26" x2="276" y2="26" stroke="#27d9ff" opacity="0.5"/>

    <g transform="translate(12 36)">
      <rect x="0" y="0" width="264" height="94" rx="7" fill="#080d16" opacity="0.68" stroke="#27d9ff" stroke-opacity="0.9"/>
      <text x="132" y="27" class="label" font-size="22" text-anchor="middle">SPACE</text>
      <text x="132" y="43" class="small" text-anchor="middle">DEPTH / SIZE</text>
      <circle cx="132" cy="67" r="34" fill="#05080d" stroke="#203248"/>
      <path d="M110 89 A34 34 0 1 1 164 89" fill="none" stroke="#172538" stroke-width="5" stroke-linecap="round"/>
      <path d="M110 89 A34 34 0 0 1 152 36" fill="none" stroke="#27d9ff" stroke-width="5" stroke-linecap="round" filter="url(#softGlow)"/>
      <line x1="132" y1="67" x2="147" y2="42" stroke="#e8f5ff" stroke-width="3" stroke-linecap="round"/>
    </g>
    <g transform="translate(12 145)">
      <rect x="0" y="0" width="264" height="94" rx="7" fill="#080d16" opacity="0.68" stroke="#9b62ff"/>
      <text x="132" y="27" class="label" font-size="22" text-anchor="middle">WILD</text>
      <text x="132" y="43" class="small" text-anchor="middle">INSTABILITY</text>
      <circle cx="132" cy="67" r="34" fill="#05080d" stroke="#203248"/>
      <path d="M110 89 A34 34 0 1 1 164 89" fill="none" stroke="#172538" stroke-width="5" stroke-linecap="round"/>
      <path d="M110 89 A34 34 0 0 1 166 56" fill="none" stroke="#9b62ff" stroke-width="5" stroke-linecap="round" filter="url(#softGlow)"/>
      <line x1="132" y1="67" x2="163" y2="55" stroke="#e8f5ff" stroke-width="3" stroke-linecap="round"/>
    </g>
    <g transform="translate(12 254)">
      <rect x="0" y="0" width="264" height="94" rx="7" fill="#080d16" opacity="0.68" stroke="#ffb451"/>
      <text x="132" y="27" class="label" font-size="22" text-anchor="middle">BLOOM</text>
      <text x="132" y="43" class="small" text-anchor="middle">TAIL / EXPAND</text>
      <circle cx="132" cy="67" r="34" fill="#05080d" stroke="#203248"/>
      <path d="M110 89 A34 34 0 1 1 164 89" fill="none" stroke="#172538" stroke-width="5" stroke-linecap="round"/>
      <path d="M110 89 A34 34 0 0 1 160 43" fill="none" stroke="#ffb451" stroke-width="5" stroke-linecap="round" filter="url(#softGlow)"/>
      <line x1="132" y1="67" x2="158" y2="45" stroke="#e8f5ff" stroke-width="3" stroke-linecap="round"/>
    </g>
  </g>

  <g transform="translate(316 90)">
    <rect class="panel" x="0" y="0" width="568" height="209" rx="8"/>
    <text x="12" y="18" class="label" font-size="12">DELAY / REVERB LAYER</text>
    <text x="544" y="18" class="code" text-anchor="end">D-2350</text>
    <line x1="12" y1="26" x2="556" y2="26" stroke="#27d9ff" opacity="0.5"/>
    <g transform="translate(16 39)" text-anchor="middle">
      <g>
        <circle cx="34" cy="49" r="31" fill="#05080d" stroke="#203248"/>
        <path d="M15 73 A31 31 0 1 1 53 73" fill="none" stroke="#172538" stroke-width="5" stroke-linecap="round"/>
        <path d="M15 73 A31 31 0 0 1 55 28" fill="none" stroke="#27d9ff" stroke-width="5" stroke-linecap="round"/>
        <text x="34" y="103" class="label" font-size="13">TIME</text>
        <text x="34" y="117" class="small">DELAY LINE</text>
      </g>
      <g transform="translate(67 0)">
        <circle cx="34" cy="49" r="31" fill="#05080d" stroke="#203248"/>
        <path d="M15 73 A31 31 0 1 1 53 73" fill="none" stroke="#172538" stroke-width="5" stroke-linecap="round"/>
        <path d="M15 73 A31 31 0 0 1 65 52" fill="none" stroke="#ffb451" stroke-width="5" stroke-linecap="round"/>
        <text x="34" y="103" class="label" font-size="13">FEEDBACK</text>
        <text x="34" y="117" class="small">REGEN</text>
      </g>
      <g transform="translate(134 0)">
        <circle cx="34" cy="49" r="31" fill="#05080d" stroke="#203248"/>
        <path d="M15 73 A31 31 0 1 1 53 73" fill="none" stroke="#172538" stroke-width="5" stroke-linecap="round"/>
        <path d="M15 73 A31 31 0 0 1 48 22" fill="none" stroke="#62f0b1" stroke-width="5" stroke-linecap="round"/>
        <text x="34" y="103" class="label" font-size="13">MIX</text>
        <text x="34" y="117" class="small">DRY / WET</text>
      </g>
      <g transform="translate(201 0)">
        <circle cx="34" cy="49" r="31" fill="#05080d" stroke="#203248"/>
        <path d="M15 73 A31 31 0 1 1 53 73" fill="none" stroke="#172538" stroke-width="5" stroke-linecap="round"/>
        <path d="M15 73 A31 31 0 0 1 63 43" fill="none" stroke="#9b62ff" stroke-width="5" stroke-linecap="round"/>
        <text x="34" y="103" class="label" font-size="13">DIFFUSION</text>
        <text x="34" y="117" class="small">CLOUD</text>
      </g>
      <g transform="translate(268 0)">
        <circle cx="34" cy="49" r="31" fill="#05080d" stroke="#203248"/>
        <path d="M15 73 A31 31 0 1 1 53 73" fill="none" stroke="#172538" stroke-width="5" stroke-linecap="round"/>
        <path d="M15 73 A31 31 0 0 1 42 19" fill="none" stroke="#62f0b1" stroke-width="5" stroke-linecap="round"/>
        <text x="34" y="103" class="label" font-size="13">TONE</text>
        <text x="34" y="117" class="small">AIR / DAMP</text>
      </g>
      <g transform="translate(335 0)">
        <circle cx="34" cy="49" r="31" fill="#05080d" stroke="#203248"/>
        <path d="M15 73 A31 31 0 1 1 53 73" fill="none" stroke="#172538" stroke-width="5" stroke-linecap="round"/>
        <path d="M15 73 A31 31 0 0 1 34 18" fill="none" stroke="#ffb451" stroke-width="5" stroke-linecap="round"/>
        <text x="34" y="103" class="label" font-size="13">DAMP</text>
        <text x="34" y="117" class="small">LOW ORBIT</text>
      </g>
      <g transform="translate(402 0)">
        <circle cx="34" cy="49" r="31" fill="#05080d" stroke="#203248"/>
        <path d="M15 73 A31 31 0 1 1 53 73" fill="none" stroke="#172538" stroke-width="5" stroke-linecap="round"/>
        <path d="M15 73 A31 31 0 0 1 62 40" fill="none" stroke="#27d9ff" stroke-width="5" stroke-linecap="round"/>
        <text x="34" y="103" class="label" font-size="13">WIDTH</text>
        <text x="34" y="117" class="small">STEREO</text>
      </g>
      <g transform="translate(472 10)">
        <rect x="0" y="27" width="69" height="31" rx="4" fill="#08101a" stroke="#203248"/>
        <text x="35" y="47" class="label" font-size="13">SYNC</text>
        <text x="35" y="91" class="label" font-size="13">HOST</text>
        <text x="35" y="105" class="small">GRID</text>
      </g>
    </g>
  </g>

  <g transform="translate(316 311)">
    <rect class="panel" x="0" y="0" width="568" height="137" rx="8"/>
    <text x="12" y="18" class="label" font-size="12">ADVANCED FIELD</text>
    <text x="544" y="18" class="code" text-anchor="end">X-02</text>
    <line x1="12" y1="26" x2="556" y2="26" stroke="#27d9ff" opacity="0.5"/>
    <g transform="translate(20 43)" class="label" font-size="12" text-anchor="middle">
      <rect x="0" y="0" width="54" height="64" rx="7" fill="#080d16" stroke="#27d9ff" opacity="0.75"/>
      <text x="27" y="31">MOD</text><text x="27" y="45">RATE</text>
      <rect x="68" y="0" width="54" height="64" rx="7" fill="#080d16" stroke="#9b62ff" opacity="0.75"/>
      <text x="95" y="31">MOD</text><text x="95" y="45">DEPTH</text>
      <rect x="136" y="0" width="72" height="64" rx="7" fill="#080d16" stroke="#62f0b1" opacity="0.75"/>
      <text x="172" y="31">PITCH</text><text x="172" y="45">DRIFT</text>
      <rect x="222" y="0" width="70" height="64" rx="7" fill="#080d16" stroke="#ffb451" opacity="0.75"/>
      <text x="257" y="37">SHIMMER</text>
      <rect x="306" y="0" width="64" height="64" rx="7" fill="#080d16" stroke="#203248"/>
      <text x="338" y="37">OCTAVE</text>
      <rect x="384" y="0" width="70" height="64" rx="7" fill="#080d16" stroke="#27d9ff" opacity="0.75"/>
      <text x="419" y="37">DUCKING</text>
      <rect x="468" y="0" width="56" height="64" rx="7" fill="#101b16" stroke="#62f0b1"/>
      <text x="496" y="37">FREEZE</text>
    </g>
  </g>

  <g transform="translate(16 460)">
    <rect class="panel" x="0" y="0" width="868" height="84" rx="8"/>
    <text x="12" y="18" class="label" font-size="12">TELEMETRY</text>
    <text x="844" y="18" class="code" text-anchor="end">IO / SAFETY</text>
    <line x1="12" y1="26" x2="856" y2="26" stroke="#27d9ff" opacity="0.5"/>
    <g transform="translate(18 38)" class="label" font-size="12" text-anchor="middle">
      <rect x="0" y="0" width="72" height="31" rx="4" fill="#080d16" stroke="#27d9ff" opacity="0.7"/><text x="36" y="20">INPUT</text>
      <rect x="84" y="0" width="72" height="31" rx="4" fill="#080d16" stroke="#62f0b1" opacity="0.7"/><text x="120" y="20">OUTPUT</text>
      <rect x="168" y="0" width="72" height="31" rx="4" fill="#080d16" stroke="#ffb451" opacity="0.7"/><text x="204" y="20">KILL DRY</text>
      <rect x="252" y="0" width="72" height="31" rx="4" fill="#080d16" stroke="#9b62ff" opacity="0.7"/><text x="288" y="20">ATMOS</text>
    </g>
    <g transform="translate(412 37)">
      <text x="0" y="9" class="small">INPUT</text>
      <rect x="0" y="14" width="260" height="9" rx="3" fill="#05080d" stroke="#203248"/>
      <rect x="1" y="15" width="156" height="7" rx="3" fill="#27d9ff"/>
      <text x="0" y="37" class="small">OUTPUT</text>
      <rect x="0" y="42" width="260" height="9" rx="3" fill="#05080d" stroke="#203248"/>
      <rect x="1" y="43" width="190" height="7" rx="3" fill="#62f0b1"/>
      <text x="0" y="65" class="small">FEEDBACK SAFETY</text>
      <rect x="0" y="70" width="260" height="9" rx="3" fill="#05080d" stroke="#203248"/>
      <rect x="1" y="71" width="134" height="7" rx="3" fill="#ffb451"/>
    </g>
    <g transform="translate(734 6)">
      <circle cx="36" cy="36" r="34" fill="#05080d" stroke="#203248"/>
      <path d="M10 36 C24 10 45 10 62 36 C45 62 24 62 10 36 Z" fill="none" stroke="#62f0b1" stroke-width="1.5" filter="url(#softGlow)"/>
      <path d="M36 8 C66 26 66 46 36 64 C6 46 6 26 36 8 Z" fill="none" stroke="#9b62ff" stroke-width="1"/>
      <circle cx="56" cy="26" r="4" fill="#ffb451"/>
      <text x="36" y="39" class="small" text-anchor="middle">GRAVITY</text>
    </g>
  </g>
</svg>
